<svg width="55" height="55" viewBox="0 0 55 55" fill="none" xmlns="http://www.w3.org/2000/svg">
<path d="M19 44.5V7.66667L53 2V38.8333M19 44.5C19 49.1944 15.1944 53 10.5 53C5.80558 53 2 49.1944 2 44.5C2 39.8056 5.80558 36 10.5 36C15.1944 36 19 39.8056 19 44.5ZM53 38.8333C53 43.5278 49.1944 47.3333 44.5 47.3333C39.8056 47.3333 36 43.5278 36 38.8333C36 34.1389 39.8056 30.3333 44.5 30.3333C49.1944 30.3333 53 34.1389 53 38.8333Z" stroke="#F16461" stroke-width="4" stroke-linecap="round" stroke-linejoin="round"/>
</svg>
