<svg width="48" height="35" viewBox="0 0 48 35" fill="none" xmlns="http://www.w3.org/2000/svg">
<path d="M45.08 6.84C44.8424 5.89082 44.3586 5.02114 43.6773 4.31881C42.996 3.61648 42.1415 3.10637 41.2 2.84C37.76 2 24 2 24 2C24 2 10.24 2 6.79998 2.92C5.85848 3.18637 5.00394 3.69648 4.32268 4.39881C3.64142 5.10114 3.15756 5.97082 2.91998 6.92C2.29041 10.4111 1.98246 13.9526 1.99998 17.5C1.97754 21.0741 2.28552 24.6426 2.91998 28.16C3.1819 29.0797 3.6766 29.9163 4.35627 30.589C5.03595 31.2616 5.87762 31.7476 6.79998 32C10.24 32.92 24 32.92 24 32.92C24 32.92 37.76 32.92 41.2 32C42.1415 31.7336 42.996 31.2235 43.6773 30.5212C44.3586 29.8189 44.8424 28.9492 45.08 28C45.7047 24.5352 46.0126 21.0207 46 17.5C46.0224 13.9259 45.7145 10.3574 45.08 6.84Z" stroke="#F16461" stroke-width="4" stroke-linecap="round" stroke-linejoin="round"/>
<path d="M19.5 24.04L31 17.5L19.5 10.96V24.04Z" stroke="#F16461" stroke-width="4" stroke-linecap="round" stroke-linejoin="round"/>
</svg>
